<svg xmlns="http://www.w3.org/2000/svg" xmlns:xlink="http://www.w3.org/1999/xlink" width="54" height="66" viewBox="0 0 54 66">
  <defs>
    <clipPath id="clip-path">
      <rect id="Rectangle_592" data-name="Rectangle 592" width="48.784" height="60" fill="none"/>
    </clipPath>
    <clipPath id="clip-Metafit_Logo_1">
      <rect width="54" height="66"/>
    </clipPath>
  </defs>
  <g id="Metafit_Logo_1" data-name="Metafit Logo – 1" clip-path="url(#clip-Metafit_Logo_1)">
    <rect width="54" height="66" fill="#e30807"/>
    <g id="Group_281" data-name="Group 281" transform="translate(3 2)">
      <g id="Group_219" data-name="Group 219" clip-path="url(#clip-path)">
        <path id="Path_223" data-name="Path 223" d="M69.168,138.934h-2.36c-.106,0-.212,0-.317-.008a.166.166,0,0,1-.142-.1c-.046-.1-.091-.191-.133-.288l-3.493-7.977q-2.119-4.84-4.239-9.68c-.048-.11-.1-.22-.156-.326-.009-.018-.049-.022-.076-.027a.044.044,0,0,0-.034.021c-.064.12-.13.239-.187.361q-1.471,3.117-2.94,6.235-2.709,5.743-5.419,11.485c-.246.521-.135.441-.7.444q-4.856.026-9.712.045c-.7,0-.506.116-.9-.476q-1.919-2.919-3.83-5.844c-.066-.1-.135-.2-.207-.3a.167.167,0,0,0-.079-.038s-.02.021-.024.035c-.059.2-.121.405-.174.61q-.733,2.878-1.463,5.758c-.015.059-.027.118-.043.176-.04.139-.086.175-.219.179l-.136,0-4.4.018a2.833,2.833,0,0,1-.362-.017.414.414,0,0,1-.162-.073.172.172,0,0,1-.074-.156.537.537,0,0,1,.027-.133q.685-2.232,1.371-4.465,1.39-4.554,2.775-9.11a1.061,1.061,0,0,1,.5-.72,2.64,2.64,0,0,1,.674-.369,2.471,2.471,0,0,1,2.471.436,1.575,1.575,0,0,1,.311.387l1.457,2.191,7.136,10.729q.088.132.179.262c.056.079.11.069.163-.034.062-.121.122-.243.181-.366l8.746-17.988,3.174-6.526c.027-.054.058-.107.079-.163a1.5,1.5,0,0,1,.535-.66,2.5,2.5,0,0,1,1.6-.549,2.612,2.612,0,0,1,1.822.8.814.814,0,0,1,.165.268c.174.4.354.8.53,1.2l6.654,15.158q2.006,4.568,4.013,9.135c.048.11.091.223.133.336a.1.1,0,0,1-.09.123c-.136,0-.272,0-.408,0H69.168Z" transform="translate(-23.111 -95.136)" fill="#fff"/>
        <path id="Path_224" data-name="Path 224" d="M1.053,328.678a.936.936,0,0,0-.006.136c.038.391.079.782.117,1.173.012.12.021.241.021.362,0,.666,0,1.331,0,2,0,.03,0,.06,0,.091-.005.109-.062.177-.162.177-.3,0-.6,0-.906-.006a.13.13,0,0,1-.108-.122c0-.106-.008-.211-.008-.317q0-2.473,0-4.946,0-.159.006-.317a.129.129,0,0,1,.144-.135c.378,0,.756,0,1.134,0a.188.188,0,0,1,.205.137c.062.186.134.37.2.554.218.6.441,1.19.653,1.789.126.356.235.717.353,1.075,0,.008.021.015.032.015s.036,0,.042-.012a.469.469,0,0,0,.063-.117c.315-1.09.733-2.145,1.1-3.217a1.076,1.076,0,0,1,.052-.125.153.153,0,0,1,.14-.1q.612,0,1.224.007a.123.123,0,0,1,.107.122c0,.106.006.212.006.317q0,2.473,0,4.946c0,.091,0,.182,0,.272,0,.13-.058.182-.2.184-.272,0-.544,0-.816,0-.015,0-.03,0-.045-.006a.142.142,0,0,1-.136-.149c0-.015,0-.03,0-.045,0-.877-.028-1.755.032-2.631.014-.211.042-.421.061-.632.011-.12.016-.241.024-.361a.185.185,0,0,0-.009-.044c.018.058-.016-.04-.043.014-.045.094-.092.187-.127.284q-.49,1.341-.977,2.684c-.031.085-.066.169-.1.255a.165.165,0,0,1-.165.126c-.166,0-.332,0-.5,0a.171.171,0,0,1-.164-.131q-.495-1.364-.991-2.727c-.046-.128-.08-.26-.133-.385-.028-.066-.042-.147-.119-.191" transform="translate(0 -277.763)" fill="#fff"/>
        <path id="Path_225" data-name="Path 225" d="M72.842,395H64.087c-.151,0-.3,0-.453-.005a.438.438,0,0,1-.1-.856.69.69,0,0,1,.177-.032c.136-.005.272,0,.408,0h17.51c.151,0,.3-.006.453.006a.461.461,0,0,1,.427.349.452.452,0,0,1-.32.525.8.8,0,0,1-.135.014c-.151,0-.3,0-.454,0H72.842" transform="translate(-53.737 -334.997)" fill="#fffefe"/>
        <path id="Path_226" data-name="Path 226" d="M55.989,329.652q0-1.18,0-2.359c0-.136,0-.272.007-.408a.127.127,0,0,1,.108-.122c.075,0,.151-.011.226-.011q1.5,0,2.994,0a1.891,1.891,0,0,1,.27.021c.023,0,.049.036.061.061a.211.211,0,0,1,.014.088c0,.242,0,.484,0,.726,0,.165-.043.2-.222.206-.529,0-1.058,0-1.588,0-.136,0-.272,0-.408.007a.124.124,0,0,0-.119.111q0,.476,0,.952a.134.134,0,0,0,.082.1c.091,0,.181.01.272.01H59a1.214,1.214,0,0,1,.225.016.1.1,0,0,1,.082.094q0,.431,0,.861a.147.147,0,0,1-.151.135c-.106,0-.212,0-.317,0H57.8c-.106,0-.212,0-.317.005s-.157.059-.158.176c0,.348,0,.7,0,1.043a.122.122,0,0,0,.115.113c.121,0,.242.007.362.008h1.5c.106,0,.211,0,.317.008a.131.131,0,0,1,.124.109q.005.43.005.861a.143.143,0,0,1-.111.126,1.644,1.644,0,0,1-.18.015H56.285l-.091,0c-.14-.006-.2-.059-.2-.186s0-.242,0-.363q0-1.2,0-2.4" transform="translate(-47.592 -277.75)" fill="#fffefe"/>
        <path id="Path_227" data-name="Path 227" d="M184.8,329.65q0-1.2,0-2.4c0-.106,0-.212,0-.317s.051-.172.155-.175c.06,0,.121,0,.181,0h3.037q.091,0,.181,0a.134.134,0,0,1,.143.138c0,.242.006.483,0,.725,0,.205-.03.235-.235.235-.5,0-1,0-1.5,0-.151,0-.3,0-.453,0s-.18.085-.181.2c0,.332,0,.665,0,1a.193.193,0,0,0,.014.089.113.113,0,0,0,.066.057,1.616,1.616,0,0,0,.226.013c.468,0,.937,0,1.405,0a1.335,1.335,0,0,1,.224.019c.024,0,.043.038.061.062a.078.078,0,0,1,.009.044c0,.287,0,.574,0,.861a.123.123,0,0,1-.116.114c-.121.005-.241.01-.362.01-.423,0-.846,0-1.269,0a.732.732,0,0,0-.177.023.1.1,0,0,0-.059.059,1.163,1.163,0,0,0-.025.223c0,.529,0,1.058,0,1.587a1.856,1.856,0,0,1-.012.271.11.11,0,0,1-.087.094.734.734,0,0,1-.088.018c-.075,0-.151,0-.226,0-.793.006-.862.005-.884-.066a2.988,2.988,0,0,1-.037-.852c-.008-.68,0-1.36,0-2.04" transform="translate(-157.079 -277.75)" fill="#fffefe"/>
        <path id="Path_228" data-name="Path 228" d="M97.85,330.25q0-1.043,0-2.086c0-.06,0-.12-.009-.181a.129.129,0,0,0-.113-.12c-.211,0-.423-.006-.634-.008-.242,0-.483,0-.725-.009a.119.119,0,0,1-.109-.12q0-.43,0-.86a.119.119,0,0,1,.118-.109c.075,0,.151-.006.226-.006h3.808c.09,0,.181.006.271.011a.127.127,0,0,1,.107.123c0,.181.006.362.007.544,0,.445.019.426-.412.426h-.952c-.045,0-.09,0-.136.008a.127.127,0,0,0-.107.124c0,.136-.008.272-.008.408q0,1.9,0,3.808a2.577,2.577,0,0,1-.023.313c0,.023-.034.048-.059.061a.184.184,0,0,1-.087.023q-.5,0-1,0a.173.173,0,0,1-.085-.026c-.024-.015-.053-.039-.058-.063a1.2,1.2,0,0,1-.024-.222q0-1.02,0-2.04Z" transform="translate(-81.824 -277.75)" fill="#fffefe"/>
        <path id="Path_229" data-name="Path 229" d="M253.605,330.184q0-1,0-2a1.58,1.58,0,0,0-.016-.271.137.137,0,0,0-.084-.089.973.973,0,0,0-.225-.018c-.363,0-.726,0-1.089,0-.118,0-.207-.015-.2-.176,0-.015,0-.03,0-.045-.014-.68-.009-.825.053-.843a2.891,2.891,0,0,1,.807-.035c1.058-.005,2.117,0,3.176,0,.136,0,.272,0,.407.013a.13.13,0,0,1,.089.082,1.083,1.083,0,0,1,.015.225c.008.644,0,.734-.056.751a2.57,2.57,0,0,1-.718.03c-.766.006-.773,0-.8.062a2.26,2.26,0,0,0-.042.761c-.006,1.134,0,2.269,0,3.4,0,.136-.006.272-.011.408a.127.127,0,0,1-.122.109c-.362,0-.725,0-1.087-.007a.1.1,0,0,1-.084-.091,3.1,3.1,0,0,1-.012-.317q0-.976,0-1.951" transform="translate(-214.194 -277.702)" fill="#fff"/>
        <path id="Path_230" data-name="Path 230" d="M226.65,329.712q0-1.248,0-2.5c0-.121,0-.242.013-.362a.1.1,0,0,1,.091-.084c.332-.005.665-.011,1-.011.2,0,.23.03.234.237,0,.106,0,.212,0,.318q0,2.382,0,4.763c0,.136,0,.272-.008.408a.167.167,0,0,1-.12.118.382.382,0,0,1-.045.006c-.332,0-.665,0-1,0a.175.175,0,0,1-.086-.025c-.024-.014-.054-.039-.057-.063a1.911,1.911,0,0,1-.022-.268q0-1.27,0-2.54" transform="translate(-192.66 -277.757)" fill="#fffdfd"/>
        <path id="Path_231" data-name="Path 231" d="M200.164,6.041a7.254,7.254,0,0,0-1.317-3.151A6.924,6.924,0,0,0,192.17.08a6.747,6.747,0,0,0-2.688,1.034,7.392,7.392,0,0,0-2.865,8.631,7.091,7.091,0,0,0,5.59,4.689,6.864,6.864,0,0,0,6.265-2.343,7.237,7.237,0,0,0,1.787-4.829,8.226,8.226,0,0,0-.1-1.221m-4.831,1.191a2.93,2.93,0,0,1-.391,1.515,2.289,2.289,0,0,1-.59.679,1.813,1.813,0,0,1-2.332-.068,2.508,2.508,0,0,1-.538-.666,3.062,3.062,0,0,1,.045-2.947,2.383,2.383,0,0,1,.492-.588,1.8,1.8,0,0,1,2.435.014,2.532,2.532,0,0,1,.781,1.3,2.439,2.439,0,0,1,.1.761" transform="translate(-158.266 0)" fill="#fff"/>
        <path id="Path_232" data-name="Path 232" d="M141,332.242q-.814-2.572-1.616-5.149c-.023-.072-.047-.144-.072-.215a.138.138,0,0,0-.137-.1c-.227,0-.454,0-.68,0v0h-.681a.141.141,0,0,0-.14.093c-.028.07-.053.142-.075.214q-.81,2.574-1.618,5.148c-.027.087-.053.174-.078.261a.114.114,0,0,0,.1.126q.408.007.816.011c.463,0,.386,0,.5-.406.085-.29.154-.584.231-.877a.163.163,0,0,1,.132-.108c.015,0,.03,0,.045,0h1.5c.015,0,.03.006.045.008a.123.123,0,0,1,.1.083,1,1,0,0,1,.056.171c.085.321.168.644.255.964.036.132.082.164.23.166.272,0,.545,0,.817,0,.345,0,.393-.012.274-.387m-2-2.054a.187.187,0,0,1-.086.02c-.075,0-.151,0-.227,0-.7,0-.785,0-.791-.059a2.357,2.357,0,0,1,.155-.746c.1-.412.2-.823.3-1.234a.434.434,0,0,1,.139-.289c.033.1.07.2.1.3q.225.878.444,1.757a.72.72,0,0,1,.019.178.1.1,0,0,1-.046.065" transform="translate(-115.52 -277.77)" fill="#fff"/>
      </g>
    </g>
  </g>
</svg>
